<svg width="341" height="67" viewBox="0 0 341 67" fill="none" xmlns="http://www.w3.org/2000/svg">
<rect x="0.960938" y="12.5943" width="15.1838" height="51.3175" fill="#3406EA"/>
<rect x="1.15332" y="50.2656" width="44.3983" height="13.6462" fill="#3406EA"/>
<rect x="0.960938" y="0.0960922" width="15.1838" height="63.8106" fill="#3406EA"/>
<rect x="1.15332" y="50.2656" width="44.3983" height="13.6462" fill="#3406EA"/>
<path d="M0.5168 -1.96189e-06H0L16.1448 -4.89464e-06V14.9916L8.66184 8.06729L0.5168 -1.96189e-06Z" fill="white"/>
<rect x="33.251" y="39.5023" width="13.8384" height="24.4095" fill="#3406EA"/>
<path d="M33.6939 39.5023H33.251L47.0894 39.5023L47.0894 53.9174L40.6754 47.2594L33.6939 39.5023Z" fill="white"/>
<rect x="68.0381" y="51.4137" width="15.1838" height="51.3175" transform="rotate(-180 68.0381 51.4137)" fill="#D9D9D9"/>
<rect x="67.8457" y="13.7423" width="44.3983" height="13.6462" transform="rotate(-180 67.8457 13.7423)" fill="#D9D9D9"/>
<rect x="68.0381" y="63.9067" width="15.1838" height="63.8106" transform="rotate(-180 68.0381 63.9067)" fill="#3406EA"/>
<rect x="67.8457" y="13.7423" width="44.3983" height="13.6462" transform="rotate(-180 67.8457 13.7423)" fill="#3406EA"/>
<path d="M68.4832 63.8106H69L52.8552 63.8106L52.8552 48.8189L60.3382 55.7433L68.4832 63.8106Z" fill="white"/>
<rect x="35.749" y="24.5056" width="13.8384" height="24.4095" transform="rotate(-180 35.749 24.5056)" fill="#3406EA"/>
<path d="M35.3061 24.5056H35.749L21.9106 24.5056L21.9106 10.0905L28.3246 16.7485L35.3061 24.5056Z" fill="white"/>
<path d="M114.131 15.0909V50H108.506L92.0568 26.2216H91.767V50H85.4432V15.0909H91.1023L107.534 38.8864H107.841V15.0909H114.131ZM120.749 50V23.8182H126.919V50H120.749ZM123.851 20.1023C122.874 20.1023 122.033 19.7784 121.328 19.1307C120.624 18.4716 120.271 17.6818 120.271 16.7614C120.271 15.8295 120.624 15.0398 121.328 14.392C122.033 13.733 122.874 13.4034 123.851 13.4034C124.839 13.4034 125.68 13.733 126.374 14.392C127.078 15.0398 127.43 15.8295 127.43 16.7614C127.43 17.6818 127.078 18.4716 126.374 19.1307C125.68 19.7784 124.839 20.1023 123.851 20.1023ZM144.685 50.5114C142.071 50.5114 139.827 49.9375 137.952 48.7898C136.088 47.642 134.651 46.0568 133.639 44.0341C132.639 42 132.139 39.6591 132.139 37.0114C132.139 34.3523 132.651 32.0057 133.673 29.9716C134.696 27.9261 136.139 26.3352 138.003 25.1989C139.878 24.0511 142.094 23.4773 144.651 23.4773C146.776 23.4773 148.656 23.8693 150.293 24.6534C151.94 25.4261 153.253 26.5227 154.23 27.9432C155.207 29.3523 155.764 31 155.901 32.8864H150.003C149.764 31.625 149.196 30.5739 148.298 29.733C147.412 28.8807 146.224 28.4545 144.736 28.4545C143.474 28.4545 142.366 28.7955 141.412 29.4773C140.457 30.1477 139.713 31.1136 139.179 32.375C138.656 33.6364 138.395 35.1477 138.395 36.9091C138.395 38.6932 138.656 40.2273 139.179 41.5114C139.702 42.7841 140.435 43.767 141.378 44.4602C142.332 45.142 143.452 45.483 144.736 45.483C145.645 45.483 146.457 45.3125 147.173 44.9716C147.901 44.6193 148.509 44.1136 148.997 43.4545C149.486 42.7955 149.821 41.9943 150.003 41.0511H155.901C155.753 42.9034 155.207 44.5455 154.264 45.9773C153.321 47.3977 152.037 48.5114 150.412 49.3182C148.787 50.1136 146.878 50.5114 144.685 50.5114ZM172.558 50.5114C169.933 50.5114 167.666 49.9659 165.757 48.875C163.859 47.7727 162.399 46.2159 161.376 44.2045C160.354 42.1818 159.842 39.8011 159.842 37.0625C159.842 34.3693 160.354 32.0057 161.376 29.9716C162.411 27.9261 163.854 26.3352 165.706 25.1989C167.558 24.0511 169.734 23.4773 172.234 23.4773C173.848 23.4773 175.371 23.7386 176.803 24.2614C178.246 24.7727 179.518 25.5682 180.621 26.6477C181.734 27.7273 182.609 29.1023 183.246 30.7727C183.882 32.4318 184.2 34.4091 184.2 36.7045V38.5966H162.74V34.4375H178.286C178.274 33.2557 178.018 32.2045 177.518 31.2841C177.018 30.3523 176.32 29.6193 175.422 29.0852C174.536 28.5511 173.501 28.2841 172.32 28.2841C171.058 28.2841 169.95 28.5909 168.996 29.2045C168.041 29.8068 167.297 30.6023 166.763 31.5909C166.24 32.5682 165.973 33.642 165.962 34.8125V38.4432C165.962 39.9659 166.24 41.2727 166.797 42.3636C167.354 43.4432 168.132 44.2727 169.132 44.8523C170.132 45.4205 171.303 45.7045 172.643 45.7045C173.541 45.7045 174.354 45.5795 175.081 45.3295C175.808 45.0682 176.439 44.6875 176.973 44.1875C177.507 43.6875 177.911 43.0682 178.183 42.3295L183.945 42.9773C183.581 44.5 182.888 45.8295 181.865 46.9659C180.854 48.0909 179.558 48.9659 177.979 49.5909C176.399 50.2045 174.592 50.5114 172.558 50.5114ZM194.176 50H187.426L199.716 15.0909H207.523L219.83 50H213.08L203.756 22.25H203.483L194.176 50ZM194.398 36.3125H212.807V41.392H194.398V36.3125ZM233.074 50.4602C231.017 50.4602 229.176 49.9318 227.551 48.875C225.926 47.8182 224.642 46.2841 223.699 44.2727C222.756 42.2614 222.284 39.8182 222.284 36.9432C222.284 34.0341 222.761 31.5795 223.716 29.5795C224.682 27.5682 225.983 26.0511 227.619 25.0284C229.256 23.9943 231.08 23.4773 233.091 23.4773C234.625 23.4773 235.886 23.7386 236.875 24.2614C237.864 24.7727 238.648 25.392 239.227 26.1193C239.807 26.8352 240.256 27.5114 240.574 28.1477H240.83V15.0909H247.017V50H240.949V45.875H240.574C240.256 46.5114 239.795 47.1875 239.193 47.9034C238.591 48.608 237.795 49.2102 236.807 49.7102C235.818 50.2102 234.574 50.4602 233.074 50.4602ZM234.795 45.3977C236.102 45.3977 237.216 45.0455 238.136 44.3409C239.057 43.625 239.756 42.6307 240.233 41.358C240.71 40.0852 240.949 38.6023 240.949 36.9091C240.949 35.2159 240.71 33.7443 240.233 32.4943C239.767 31.2443 239.074 30.2727 238.153 29.5795C237.244 28.8864 236.125 28.5398 234.795 28.5398C233.42 28.5398 232.273 28.8977 231.352 29.6136C230.432 30.3295 229.739 31.3182 229.273 32.5795C228.807 33.8409 228.574 35.2841 228.574 36.9091C228.574 38.5455 228.807 40.0057 229.273 41.2898C229.75 42.5625 230.449 43.5682 231.369 44.3068C232.301 45.0341 233.443 45.3977 234.795 45.3977ZM253.592 50V23.8182H259.49V28.267H259.797C260.342 26.767 261.246 25.5966 262.507 24.7557C263.768 23.9034 265.274 23.4773 267.024 23.4773C268.797 23.4773 270.291 23.9091 271.507 24.7727C272.734 25.625 273.598 26.7898 274.098 28.267H274.371C274.95 26.8125 275.928 25.6534 277.303 24.7898C278.689 23.9148 280.331 23.4773 282.229 23.4773C284.638 23.4773 286.604 24.2386 288.126 25.7614C289.649 27.2841 290.411 29.5057 290.411 32.4261V50H284.223V33.3807C284.223 31.7557 283.791 30.5682 282.928 29.8182C282.064 29.0568 281.007 28.6761 279.757 28.6761C278.268 28.6761 277.104 29.142 276.263 30.0739C275.433 30.9943 275.018 32.1932 275.018 33.6705V50H268.967V33.125C268.967 31.7727 268.558 30.6932 267.74 29.8864C266.933 29.0795 265.876 28.6761 264.57 28.6761C263.683 28.6761 262.876 28.9034 262.149 29.358C261.422 29.8011 260.842 30.4318 260.411 31.25C259.979 32.0568 259.763 33 259.763 34.0795V50H253.592ZM296.67 50V23.8182H302.841V50H296.67ZM299.773 20.1023C298.795 20.1023 297.955 19.7784 297.25 19.1307C296.545 18.4716 296.193 17.6818 296.193 16.7614C296.193 15.8295 296.545 15.0398 297.25 14.392C297.955 13.733 298.795 13.4034 299.773 13.4034C300.761 13.4034 301.602 13.733 302.295 14.392C303 15.0398 303.352 15.8295 303.352 16.7614C303.352 17.6818 303 18.4716 302.295 19.1307C301.602 19.7784 300.761 20.1023 299.773 20.1023ZM315.357 34.6591V50H309.186V23.8182H315.084V28.267H315.391C315.993 26.8011 316.953 25.6364 318.271 24.7727C319.601 23.9091 321.243 23.4773 323.197 23.4773C325.004 23.4773 326.578 23.8636 327.919 24.6364C329.271 25.4091 330.317 26.5284 331.055 27.9943C331.805 29.4602 332.175 31.2386 332.163 33.3295V50H325.993V34.2841C325.993 32.5341 325.538 31.1648 324.629 30.1761C323.732 29.1875 322.487 28.6932 320.896 28.6932C319.817 28.6932 318.857 28.9318 318.016 29.4091C317.186 29.875 316.533 30.5511 316.055 31.4375C315.589 32.3239 315.357 33.3977 315.357 34.6591Z" fill="#03009E"/>
</svg>
